<svg xmlns="http://www.w3.org/2000/svg" viewBox="0 0 811.44 767.24"><defs><style>.cls-1,.cls-26,.cls-30,.cls-34,.cls-35,.cls-52,.cls-54,.cls-55,.cls-57,.cls-62,.cls-80{fill:none;}.cls-1{stroke:#70c8c2;}.cls-1,.cls-30,.cls-34,.cls-35,.cls-62{stroke-miterlimit:10;}.cls-2{fill:#fff;}.cls-3{font-size:26px;}.cls-29,.cls-3,.cls-8{font-family:Lato-Black, Lato;font-weight:800;}.cls-4{letter-spacing:-0.01em;}.cls-5{letter-spacing:-0.01em;}.cls-6{letter-spacing:-0.02em;}.cls-7{letter-spacing:-0.01em;}.cls-8{font-size:16px;}.cls-9{letter-spacing:-0.01em;}.cls-10{letter-spacing:0em;}.cls-11{letter-spacing:-0.02em;}.cls-12{letter-spacing:-0.01em;}.cls-13{letter-spacing:-0.02em;}.cls-14{letter-spacing:-0.02em;}.cls-15{letter-spacing:-0.01em;}.cls-16{letter-spacing:-0.01em;}.cls-17{letter-spacing:-0.02em;}.cls-18{letter-spacing:-0.12em;}.cls-19{letter-spacing:-0.02em;}.cls-20{letter-spacing:0em;}.cls-21{letter-spacing:-0.01em;}.cls-22{letter-spacing:-0.01em;}.cls-23{letter-spacing:0em;}.cls-24{fill:#ffd4d4;opacity:0.35;}.cls-25,.cls-58{font-size:8px;}.cls-25,.cls-53,.cls-56,.cls-58,.cls-63,.cls-76,.cls-77,.cls-78,.cls-79{font-family:Lato-Regular, Lato;}.cls-26,.cls-52,.cls-57{stroke:#a7a9ac;}.cls-26,.cls-52,.cls-57,.cls-62,.cls-80{stroke-linecap:round;}.cls-26,.cls-52,.cls-57,.cls-80{stroke-linejoin:round;}.cls-26,.cls-34,.cls-35,.cls-52,.cls-57{stroke-width:0.5px;}.cls-27{fill:#faa;}.cls-28{fill:#f55;}.cls-29,.cls-56{font-size:12px;}.cls-30,.cls-34,.cls-35,.cls-62,.cls-80{stroke:#000;}.cls-31{letter-spacing:-0.02em;}.cls-32{letter-spacing:-0.01em;}.cls-33{letter-spacing:-0.01em;}.cls-35{stroke-dasharray:3.05 1.02;}.cls-104,.cls-36{font-size:10px;}.cls-36,.cls-59,.cls-60{font-family:Lato-Light, Lato;font-weight:300;}.cls-37{letter-spacing:-0.03em;}.cls-38{letter-spacing:-0.02em;}.cls-39{letter-spacing:0em;}.cls-40{letter-spacing:-0.01em;}.cls-41{letter-spacing:-0.01em;}.cls-42{letter-spacing:-0.01em;}.cls-43{letter-spacing:-0.01em;}.cls-44{letter-spacing:-0.02em;}.cls-45{letter-spacing:-0.01em;}.cls-46{letter-spacing:0em;}.cls-47{letter-spacing:-0.03em;}.cls-48{letter-spacing:-0.01em;}.cls-49{letter-spacing:-0.03em;}.cls-50{letter-spacing:-0.02em;}.cls-51{letter-spacing:-0.02em;}.cls-52{opacity:0;}.cls-53{font-size:11px;}.cls-55{font-size:14.52px;font-family:MyriadPro-Regular, Myriad Pro;}.cls-57{opacity:0.72;}.cls-58{fill:#231f20;}.cls-60{letter-spacing:0em;}.cls-61{fill:#d1d3d4;}.cls-62{stroke-width:3px;}.cls-113,.cls-63{font-size:9px;}.cls-64{letter-spacing:-0.01em;}.cls-65{letter-spacing:-0.01em;}.cls-66,.cls-78{letter-spacing:0em;}.cls-67{letter-spacing:-0.01em;}.cls-68{letter-spacing:-0.02em;}.cls-69{letter-spacing:-0.01em;}.cls-70{letter-spacing:-0.01em;}.cls-71,.cls-77{letter-spacing:-0.02em;}.cls-72{letter-spacing:-0.01em;}.cls-104,.cls-113,.cls-73{font-family:Lato-Bold, Lato;font-weight:700;}.cls-74{letter-spacing:-0.01em;}.cls-75{letter-spacing:-0.01em;}.cls-76,.cls-77,.cls-78,.cls-79{font-weight:400;}.cls-79,.cls-86{letter-spacing:0em;}.cls-81{letter-spacing:-0.01em;}.cls-82{letter-spacing:-0.02em;}.cls-83{letter-spacing:-0.01em;}.cls-84{letter-spacing:-0.02em;}.cls-85{letter-spacing:-0.02em;}.cls-87{letter-spacing:0em;}.cls-88{letter-spacing:-0.01em;}.cls-89{letter-spacing:-0.02em;}.cls-90{letter-spacing:-0.01em;}.cls-91{letter-spacing:-0.01em;}.cls-92{letter-spacing:0em;}.cls-93{letter-spacing:-0.02em;}.cls-94{letter-spacing:-0.03em;}.cls-95{letter-spacing:-0.01em;}.cls-96{letter-spacing:-0.03em;}.cls-97{letter-spacing:0em;}.cls-98{letter-spacing:-0.01em;}.cls-99{letter-spacing:-0.01em;}.cls-100{letter-spacing:-0.02em;}.cls-101{letter-spacing:-0.02em;}.cls-102{letter-spacing:-0.02em;}.cls-103{letter-spacing:-0.01em;}.cls-105{letter-spacing:-0.01em;}.cls-106{letter-spacing:-0.01em;}.cls-107{letter-spacing:-0.01em;}.cls-108{letter-spacing:-0.01em;}.cls-109{letter-spacing:-0.01em;}.cls-110{letter-spacing:0em;}.cls-111{letter-spacing:-0.03em;}.cls-112{letter-spacing:-0.01em;}</style></defs><g id="KEEP_LOCKED:_Guides" data-name="KEEP LOCKED: Guides"><rect class="cls-1" x="0.5" y="0.5" width="126" height="1416"/><rect class="cls-1" x="135.5" y="0.5" width="126" height="1416"/><rect class="cls-1" x="270.5" y="0.5" width="126" height="1416"/><rect class="cls-1" x="405.5" y="0.5" width="126" height="1416"/><rect class="cls-1" x="540.5" y="0.5" width="126" height="1416"/><rect class="cls-1" x="675" y="0.12" width="126" height="1416"/></g><g id="Layer_10" data-name="Layer 10"><rect class="cls-2" x="-28" y="-21" width="882" height="812"/><g id="KEEP_LOCKED:_Foreground_Items" data-name="KEEP LOCKED: Foreground Items"><text class="cls-3" transform="translate(246.48 38.21)"><tspan class="cls-4">B</tspan><tspan x="17.23" y="0">oone </tspan><tspan class="cls-5" x="82.28" y="0">C</tspan><tspan x="99.03" y="0">ou</tspan><tspan class="cls-4" x="128.96" y="0">n</tspan><tspan x="143.6" y="0">t</tspan><tspan class="cls-6" x="153.58" y="0">y</tspan><tspan x="166.92" y="0" xml:space="preserve"> 2020 </tspan><tspan class="cls-7" x="239.25" y="0">c</tspan><tspan x="251.66" y="0" xml:space="preserve">ensus    </tspan></text><text class="cls-8" transform="translate(106.14 100.11)"><tspan class="cls-9">B</tspan><tspan x="10.6" y="0">oone </tspan><tspan class="cls-5" x="50.63" y="0">C</tspan><tspan x="60.94" y="0">ou</tspan><tspan class="cls-9" x="79.36" y="0">n</tspan><tspan class="cls-10" x="88.37" y="0">ty</tspan><tspan class="cls-11" x="103.12" y="0">’</tspan><tspan x="106.37" y="0">s popul</tspan><tspan class="cls-12" x="158.17" y="0">a</tspan><tspan class="cls-10" x="166.32" y="0">tion </tspan><tspan class="cls-13" x="199.13" y="0">ov</tspan><tspan x="216.49" y="0">e</tspan><tspan class="cls-14" x="225.12" y="0">r</tspan><tspan class="cls-10" x="230.89" y="0" xml:space="preserve"> a </tspan><tspan class="cls-15" x="246.56" y="0">c</tspan><tspan x="254.2" y="0">e</tspan><tspan class="cls-16" x="262.83" y="0">n</tspan><tspan class="cls-10" x="271.84" y="0">tur</tspan><tspan class="cls-17" x="293.2" y="0">y</tspan></text><text class="cls-8" transform="translate(64.82 430.11)"><tspan class="cls-18">T</tspan><tspan x="7.85" y="0">op fi</tspan><tspan class="cls-19" x="40.06" y="0">v</tspan><tspan class="cls-20" x="48.41" y="0">e g</tspan><tspan class="cls-21" x="69.29" y="0">r</tspan><tspan class="cls-22" x="75.25" y="0">o</tspan><tspan x="84.4" y="0">wing </tspan><tspan class="cls-21" x="123.14" y="0">c</tspan><tspan x="130.78" y="0">ou</tspan><tspan class="cls-9" x="149.2" y="0">nt</tspan><tspan class="cls-20" x="158.21" y="0">ies in </tspan><tspan class="cls-9" x="205.45" y="0">M</tspan><tspan x="220.69" y="0">issouri f</tspan><tspan class="cls-15" x="277.56" y="0">r</tspan><tspan x="283.52" y="0">om 2010 </tspan><tspan class="cls-23" x="350.95" y="0">t</tspan><tspan x="357.01" y="0">o 2020</tspan></text></g><rect class="cls-24" x="520" y="77" width="276" height="667"/><text class="cls-25" transform="translate(550.47 255.11)">0</text><text class="cls-25" transform="translate(545.83 239.53)">30</text><text class="cls-25" transform="translate(545.83 223.94)">60</text><text class="cls-25" transform="translate(545.83 208.36)">90</text><text class="cls-25" transform="translate(541.2 192.78)">120</text><text class="cls-25" transform="translate(541.2 177.19)">150</text><line class="cls-26" x1="556.66" y1="236.79" x2="655.34" y2="236.79"/><line class="cls-26" x1="556.66" y1="221.2" x2="655.34" y2="221.2"/><line class="cls-26" x1="556.66" y1="205.62" x2="655.34" y2="205.62"/><line class="cls-26" x1="556.66" y1="190.04" x2="655.34" y2="190.04"/><line class="cls-26" x1="556.66" y1="174.45" x2="655.34" y2="174.45"/><rect class="cls-27" x="567.51" y="182.44" width="27.63" height="69.93"/><rect class="cls-28" x="616.85" y="179.67" width="27.63" height="72.7"/><text class="cls-25" transform="translate(621.39 262.07)">2020</text><text class="cls-25" transform="translate(572.05 262.07)">2010</text><text class="cls-25" transform="translate(550.47 401.11)">0</text><text class="cls-25" transform="translate(550.47 385.53)">4</text><text class="cls-25" transform="translate(550.47 369.94)">8</text><text class="cls-25" transform="translate(545.83 354.36)">12</text><text class="cls-25" transform="translate(545.83 338.78)">16</text><text class="cls-25" transform="translate(545.83 323.19)">20</text><line class="cls-26" x1="556.66" y1="382.79" x2="655.34" y2="382.79"/><line class="cls-26" x1="556.66" y1="367.2" x2="655.34" y2="367.2"/><line class="cls-26" x1="556.66" y1="351.62" x2="655.34" y2="351.62"/><line class="cls-26" x1="556.66" y1="336.04" x2="655.34" y2="336.04"/><line class="cls-26" x1="556.66" y1="320.45" x2="655.34" y2="320.45"/><rect class="cls-27" x="567.51" y="339.5" width="27.63" height="58.87"/><rect class="cls-28" x="616.85" y="327.86" width="27.63" height="70.51"/><text class="cls-25" transform="translate(621.39 408.07)">2020</text><text class="cls-25" transform="translate(572.05 408.07)">2010</text><text class="cls-29" transform="translate(546.24 154.25)">White</text><text class="cls-29" transform="translate(546.24 295.19)">Black</text><text class="cls-25" transform="translate(550.47 681.11)">0</text><text class="cls-25" transform="translate(541.2 665.53)">150</text><text class="cls-25" transform="translate(541.2 649.94)">300</text><text class="cls-25" transform="translate(541.2 634.36)">450</text><text class="cls-25" transform="translate(541.2 618.78)">600</text><text class="cls-25" transform="translate(541.2 603.19)">750</text><line class="cls-26" x1="556.66" y1="662.79" x2="655.34" y2="662.79"/><line class="cls-26" x1="556.66" y1="647.2" x2="655.34" y2="647.2"/><line class="cls-26" x1="556.66" y1="631.62" x2="655.34" y2="631.62"/><line class="cls-26" x1="556.66" y1="616.04" x2="655.34" y2="616.04"/><line class="cls-26" x1="556.66" y1="600.45" x2="655.34" y2="600.45"/><rect class="cls-27" x="567.51" y="613.54" width="27.63" height="64.83"/><rect class="cls-28" x="616.85" y="613.23" width="27.63" height="65.14"/><text class="cls-25" transform="translate(621.39 688.07)">2020</text><text class="cls-25" transform="translate(572.05 688.07)">2010</text><text class="cls-29" transform="translate(546.24 578.25)">American Indian</text><line class="cls-30" x1="556.66" y1="532.37" x2="655.34" y2="532.37"/><text class="cls-25" transform="translate(550.47 535.11)">0</text><text class="cls-25" transform="translate(550.47 519.53)">1</text><text class="cls-25" transform="translate(550.47 503.94)">2</text><text class="cls-25" transform="translate(550.47 488.36)">3</text><text class="cls-25" transform="translate(550.47 472.78)">4</text><text class="cls-25" transform="translate(550.47 457.19)">5</text><line class="cls-26" x1="556.66" y1="532.37" x2="655.34" y2="532.37"/><line class="cls-26" x1="556.66" y1="516.79" x2="655.34" y2="516.79"/><line class="cls-26" x1="556.66" y1="501.2" x2="655.34" y2="501.2"/><line class="cls-26" x1="556.66" y1="485.62" x2="655.34" y2="485.62"/><line class="cls-26" x1="556.66" y1="470.04" x2="655.34" y2="470.04"/><line class="cls-26" x1="556.66" y1="454.45" x2="655.34" y2="454.45"/><rect class="cls-27" x="567.51" y="509.37" width="27.63" height="23"/><rect class="cls-28" x="616.85" y="476.12" width="27.63" height="56.26"/><text class="cls-25" transform="translate(621.39 542.07)">2020</text><text class="cls-25" transform="translate(572.05 542.07)">2010</text><text class="cls-25" transform="translate(676.47 681.11)">0</text><text class="cls-25" transform="translate(671.83 665.53)">30</text><text class="cls-25" transform="translate(671.83 649.94)">60</text><text class="cls-25" transform="translate(671.83 634.36)">90</text><text class="cls-25" transform="translate(667.2 618.78)">120</text><text class="cls-25" transform="translate(667.2 603.19)">150</text><line class="cls-26" x1="682.66" y1="662.79" x2="781.34" y2="662.79"/><line class="cls-26" x1="682.66" y1="647.2" x2="781.34" y2="647.2"/><line class="cls-26" x1="682.66" y1="631.62" x2="781.34" y2="631.62"/><line class="cls-26" x1="682.66" y1="616.04" x2="781.34" y2="616.04"/><line class="cls-26" x1="682.66" y1="600.45" x2="781.34" y2="600.45"/><rect class="cls-27" x="693.51" y="630.06" width="27.63" height="48.31"/><rect class="cls-28" x="742.85" y="613.44" width="27.63" height="64.93"/><text class="cls-25" transform="translate(747.39 688.07)">2020</text><text class="cls-25" transform="translate(698.05 688.07)">2010</text><text class="cls-29" transform="translate(670.24 578.25)">Pacific Islander</text><text class="cls-29" transform="translate(547.24 433.25)">Other</text><line class="cls-30" x1="682.66" y1="533.37" x2="781.34" y2="533.37"/><text class="cls-25" transform="translate(676.47 536.11)">0</text><text class="cls-25" transform="translate(676.47 520.53)">3</text><text class="cls-25" transform="translate(676.47 504.94)">6</text><text class="cls-25" transform="translate(676.47 489.36)">9</text><text class="cls-25" transform="translate(671.83 473.78)">12</text><text class="cls-25" transform="translate(671.83 458.19)">15</text><line class="cls-30" x1="682.66" y1="533.37" x2="781.34" y2="533.37"/><line class="cls-26" x1="682.66" y1="517.79" x2="781.34" y2="517.79"/><line class="cls-26" x1="682.66" y1="502.2" x2="781.34" y2="502.2"/><line class="cls-26" x1="682.66" y1="486.62" x2="781.34" y2="486.62"/><line class="cls-26" x1="682.66" y1="471.04" x2="781.34" y2="471.04"/><line class="cls-26" x1="682.66" y1="455.45" x2="781.34" y2="455.45"/><rect class="cls-27" x="693.51" y="509.62" width="27.63" height="23.75"/><rect class="cls-28" x="742.85" y="463.91" width="27.63" height="69.46"/><text class="cls-25" transform="translate(747.39 543.07)">2020</text><text class="cls-25" transform="translate(698.05 543.07)">2010</text><text class="cls-25" transform="translate(676.47 401.11)">0</text><text class="cls-25" transform="translate(676.47 385.53)">2</text><text class="cls-25" transform="translate(676.47 369.94)">4</text><text class="cls-25" transform="translate(676.47 354.36)">6</text><text class="cls-25" transform="translate(676.47 338.78)">8</text><text class="cls-25" transform="translate(671.83 323.19)">10</text><line class="cls-26" x1="682.66" y1="382.79" x2="781.34" y2="382.79"/><line class="cls-26" x1="682.66" y1="367.2" x2="781.34" y2="367.2"/><line class="cls-26" x1="682.66" y1="351.62" x2="781.34" y2="351.62"/><line class="cls-26" x1="682.66" y1="336.04" x2="781.34" y2="336.04"/><line class="cls-26" x1="682.66" y1="320.45" x2="781.34" y2="320.45"/><rect class="cls-27" x="693.51" y="360.23" width="27.63" height="38.14"/><rect class="cls-28" x="742.85" y="335.63" width="27.63" height="62.74"/><text class="cls-25" transform="translate(747.39 408.07)">2020</text><text class="cls-25" transform="translate(698.05 408.07)">2010</text><text class="cls-29" transform="translate(671.24 433.25)">Two or more</text><text class="cls-29" transform="translate(671.24 295.19)">Hispanic or Latino</text><line class="cls-30" x1="558.5" y1="252.96" x2="658.04" y2="252.96"/><line class="cls-30" x1="556.5" y1="678.96" x2="656.04" y2="678.96"/><line class="cls-30" x1="555.5" y1="398.5" x2="655.04" y2="398.5"/><line class="cls-30" x1="684.78" y1="678.29" x2="784.32" y2="678.29"/><line class="cls-30" x1="683.25" y1="398.5" x2="782.79" y2="398.5"/><line class="cls-30" x1="682.87" y1="533.22" x2="782.41" y2="533.22"/><line class="cls-30" x1="556.08" y1="532.45" x2="655.62" y2="532.45"/><text class="cls-25" transform="translate(546.24 165.85)">(in thousands)</text><text class="cls-25" transform="translate(546.24 307.92)">(in thousands)</text><line class="cls-30" x1="682.66" y1="253.37" x2="781.34" y2="253.37"/><text class="cls-25" transform="translate(676.47 256.11)">0</text><text class="cls-25" transform="translate(676.47 240.53)">2</text><text class="cls-25" transform="translate(676.47 224.94)">4</text><text class="cls-25" transform="translate(676.47 209.36)">6</text><text class="cls-25" transform="translate(676.47 193.78)">8</text><text class="cls-25" transform="translate(671.83 178.19)">10</text><line class="cls-30" x1="682.66" y1="253.37" x2="781.34" y2="253.37"/><line class="cls-26" x1="682.66" y1="237.79" x2="781.34" y2="237.79"/><line class="cls-26" x1="682.66" y1="222.2" x2="781.34" y2="222.2"/><line class="cls-26" x1="682.66" y1="206.62" x2="781.34" y2="206.62"/><line class="cls-26" x1="682.66" y1="191.04" x2="781.34" y2="191.04"/><line class="cls-26" x1="682.66" y1="175.45" x2="781.34" y2="175.45"/><rect class="cls-27" x="693.51" y="205.5" width="27.63" height="47.87"/><rect class="cls-28" x="742.85" y="192.44" width="27.63" height="60.93"/><text class="cls-25" transform="translate(747.39 263.07)">2020</text><text class="cls-25" transform="translate(698.05 263.07)">2010</text><text class="cls-29" transform="translate(671.24 154.25)">Asian</text><text class="cls-25" transform="translate(671.24 165.85)">(in thousands)</text><text class="cls-25" transform="translate(547.24 444.8)">(in thousands)</text><text class="cls-25" transform="translate(671.24 444.8)">(in thousands)</text><text class="cls-25" transform="translate(671.24 308.35)">(in thousands)</text><text class="cls-8" transform="translate(554.4 100.11)"><tspan class="cls-9">B</tspan><tspan x="10.6" y="0">oone </tspan><tspan class="cls-5" x="50.63" y="0">C</tspan><tspan x="60.94" y="0">ou</tspan><tspan class="cls-16" x="79.36" y="0">n</tspan><tspan x="88.37" y="0">t</tspan><tspan class="cls-17" x="94.51" y="0">y</tspan><tspan class="cls-10" x="102.72" y="0" xml:space="preserve"> popul</tspan><tspan class="cls-12" x="147.39" y="0">a</tspan><tspan class="cls-10" x="155.54" y="0">tion </tspan><tspan class="cls-31" x="188.36" y="0">b</tspan><tspan class="cls-17" x="197.29" y="0">y</tspan><tspan class="cls-20" x="205.5" y="0"> </tspan><tspan class="cls-32" x="-23.44" y="24">r</tspan><tspan x="-17.42" y="24">a</tspan><tspan class="cls-21" x="-9.14" y="24">c</tspan><tspan x="-1.5" y="24">e &amp; </tspan><tspan class="cls-33" x="26.25" y="24">e</tspan><tspan x="34.77" y="24">thnicit</tspan><tspan class="cls-17" x="81.63" y="24">y</tspan><tspan x="89.84" y="24" xml:space="preserve"> f</tspan><tspan class="cls-15" x="99.39" y="24">r</tspan><tspan x="105.35" y="24">om 2010 </tspan><tspan class="cls-23" x="172.77" y="24">t</tspan><tspan x="178.83" y="24">o 2020 </tspan></text><text class="cls-25" transform="translate(19.28 133.66)">Population <tspan x="0" y="11">(in thousands)</tspan></text><line class="cls-34" x1="385" y1="174.95" x2="386.5" y2="174.95"/><line class="cls-35" x1="387.52" y1="174.95" x2="476.46" y2="174.95"/><line class="cls-34" x1="476.96" y1="174.95" x2="478.46" y2="174.95"/><text class="cls-36" transform="translate(531 711.02)">*<tspan class="cls-37" x="4.25" y="0">U</tspan><tspan x="11.25" y="0">se caution</tspan><tspan class="cls-38" x="55.39" y="0"> </tspan><tspan class="cls-39" x="57.89" y="0">when </tspan><tspan class="cls-40" x="84.47" y="0">c</tspan><tspan x="89.09" y="0">omparing 2010 and 2020 </tspan><tspan class="cls-40" x="202.55" y="0">C</tspan><tspan x="209.21" y="0">ensus </tspan><tspan class="cls-41" x="0" y="12">r</tspan><tspan x="3.43" y="12">a</tspan><tspan class="cls-40" x="8.27" y="12">c</tspan><tspan x="12.89" y="12">e d</tspan><tspan class="cls-42" x="26.33" y="12">a</tspan><tspan x="31.11" y="12">ta because </tspan><tspan class="cls-43" x="80.05" y="12">o</tspan><tspan class="cls-44" x="85.54" y="12">f</tspan><tspan x="88.77" y="12" xml:space="preserve"> chan</tspan><tspan class="cls-45" x="112.04" y="12">g</tspan><tspan x="117.08" y="12">es </tspan><tspan class="cls-46" x="129.26" y="12">t</tspan><tspan x="132.67" y="12">o question design, d</tspan><tspan class="cls-42" x="219.27" y="12">a</tspan><tspan x="224.06" y="12">ta </tspan><tspan x="0" y="24">p</tspan><tspan class="cls-47" x="5.52" y="24">r</tspan><tspan x="8.77" y="24">o</tspan><tspan class="cls-48" x="14.35" y="24">c</tspan><tspan x="18.97" y="24">essing and </tspan><tspan class="cls-40" x="66.79" y="24">c</tspan><tspan x="71.41" y="24">oding p</tspan><tspan class="cls-49" x="103.56" y="24">r</tspan><tspan x="106.82" y="24">o</tspan><tspan class="cls-40" x="112.4" y="24">c</tspan><tspan x="117.02" y="24">edu</tspan><tspan class="cls-47" x="133.24" y="24">r</tspan><tspan x="136.49" y="24">es </tspan><tspan class="cls-50" x="148.67" y="24">f</tspan><tspan x="151.88" y="24">o</tspan><tspan class="cls-51" x="157.46" y="24">r</tspan><tspan x="160.78" y="24" xml:space="preserve"> the 2020 </tspan><tspan class="cls-40" x="206.26" y="24">C</tspan><tspan x="212.93" y="24">ensus.</tspan></text><line class="cls-30" x1="682.5" y1="253.5" x2="782.04" y2="253.5"/></g><g id="Use_me_to_draw_your_chart." data-name="Use me to draw your chart."><line class="cls-52" x1="43.08" y1="715.5" x2="43.08" y2="498.45"/><line class="cls-52" x1="118.97" y1="715.5" x2="118.97" y2="498.45"/><line class="cls-52" x1="194.86" y1="715.5" x2="194.86" y2="498.45"/><line class="cls-52" x1="270.75" y1="715.5" x2="270.75" y2="498.45"/><line class="cls-52" x1="346.63" y1="715.5" x2="346.63" y2="498.45"/><line class="cls-52" x1="422.52" y1="715.5" x2="422.52" y2="498.45"/><line class="cls-52" x1="498.41" y1="715.5" x2="498.41" y2="498.45"/><text class="cls-53" transform="translate(29.7 720.95) scale(0.98 1)">0</text><text class="cls-53" transform="translate(29.7 666.68) scale(0.98 1)">5</text><text class="cls-53" transform="translate(23.43 612.42) scale(0.98 1)">10</text><text class="cls-53" transform="translate(23.43 558.16) scale(0.98 1)">15</text><text class="cls-53" transform="translate(14.77 503.89) scale(0.98 1)">20%</text><line class="cls-26" x1="498.41" y1="715.5" x2="43.08" y2="715.5"/><line class="cls-26" x1="43.08" y1="661.24" x2="498.41" y2="661.24"/><line class="cls-26" x1="43.08" y1="606.97" x2="498.41" y2="606.97"/><line class="cls-26" x1="43.08" y1="552.71" x2="498.41" y2="552.71"/><line class="cls-26" x1="43.08" y1="498.45" x2="498.41" y2="498.45"/><rect class="cls-54" x="534.2" y="498.45" width="56.92" height="21.71"/><rect class="cls-27" x="62.81" y="504.09" width="36.43" height="211.41"/><rect class="cls-27" x="138.7" y="555.42" width="36.43" height="160.08"/><rect class="cls-27" x="214.59" y="561.94" width="36.43" height="153.56"/><rect class="cls-27" x="290.48" y="570.83" width="36.43" height="144.67"/><rect class="cls-27" x="366.36" y="575.61" width="36.43" height="139.89"/><rect class="cls-28" x="442.25" y="685.44" width="36.43" height="30.06"/><text class="cls-55" transform="translate(598.23 514.75) scale(1.47 1)">% Change</text><text class="cls-56" transform="translate(437.93 732.32) scale(0.98 1)">Missouri</text><text class="cls-56" transform="translate(367.7 732.32) scale(0.98 1)">Boone</text><text class="cls-56" transform="translate(290.43 732.32) scale(0.98 1)">Lincoln</text><text class="cls-56" transform="translate(221.23 732.32) scale(0.98 1)">Clay</text><text class="cls-56" transform="translate(132.49 732.32) scale(0.98 1)">Christian</text><text class="cls-56" transform="translate(65 732.32) scale(0.98 1)">Platte</text><text class="cls-53" transform="translate(30.15 377.17) scale(0.98 1)">0</text><text class="cls-53" transform="translate(23.91 323.73) scale(0.98 1)">50</text><text class="cls-53" transform="translate(17.67 270.29) scale(0.98 1)">100</text><text class="cls-53" transform="translate(17.67 216.85) scale(0.98 1)">150</text><text class="cls-53" transform="translate(17.67 163.41) scale(0.98 1)">200</text><line class="cls-57" x1="43.51" y1="317.66" x2="499" y2="317.66"/><line class="cls-57" x1="43.51" y1="264.23" x2="499" y2="264.23"/><line class="cls-57" x1="43.51" y1="210.79" x2="499" y2="210.79"/><line class="cls-57" x1="43.51" y1="157.35" x2="499" y2="157.35"/><polygon class="cls-27" points="478.3 371.11 64.21 371.11 64.21 339.39 105.62 337.98 147.03 333.71 188.44 319.34 229.85 312.11 271.25 284.63 312.66 263.82 354.07 251 395.48 226.33 436.89 197.27 478.3 174.86 478.3 371.11"/><text class="cls-56" transform="translate(459.99 392.61) scale(0.95 1)">2020</text><text class="cls-56" transform="translate(418.59 392.61) scale(0.95 1)">2010</text><text class="cls-56" transform="translate(377.18 392.61) scale(0.95 1)">2000</text><text class="cls-56" transform="translate(335.77 392.61) scale(0.95 1)">1990</text><text class="cls-56" transform="translate(294.36 392.61) scale(0.95 1)">1980</text><text class="cls-56" transform="translate(252.95 392.61) scale(0.95 1)">1970</text><text class="cls-56" transform="translate(211.55 392.61) scale(0.95 1)">1960</text><text class="cls-56" transform="translate(170.14 392.61) scale(0.95 1)">1950</text><text class="cls-56" transform="translate(128.73 392.61) scale(0.95 1)">1940</text><text class="cls-56" transform="translate(87.32 392.61) scale(0.95 1)">1930</text><text class="cls-56" transform="translate(45.91 392.61) scale(0.95 1)">1920</text><text class="cls-58" transform="translate(633.92 761.67)">BEN SCOTT, ANNIE JENNEMANN<tspan class="cls-59" x="123.78" y="0">/Missourian</tspan></text><text class="cls-58" transform="translate(18.92 761.67)">Source:<tspan class="cls-60" x="26.29" y="0" xml:space="preserve"> U.S. Census Bureau</tspan></text><rect class="cls-61" x="48" y="463" width="65" height="32" rx="7.62"/><text class="cls-29" transform="translate(52.38 483.89)">19.48%</text><line class="cls-62" x1="101.26" y1="488" x2="101.26" y2="473"/><polygon points="101.26 468 95.2 475 107.32 475 101.26 468"/><rect class="cls-61" x="124" y="515" width="65" height="32" rx="7.62"/><text class="cls-29" transform="translate(128.38 535.89)">14.75%</text><line class="cls-62" x1="177.26" y1="540" x2="177.26" y2="525"/><polygon points="177.26 520 171.2 527 183.32 527 177.26 520"/><rect class="cls-61" x="200" y="521" width="65" height="32" rx="7.62"/><text class="cls-29" transform="translate(204.38 541.89)">14.15%</text><line class="cls-62" x1="253.26" y1="546" x2="253.26" y2="531"/><polygon points="253.26 526 247.2 533 259.32 533 253.26 526"/><text class="cls-63" transform="translate(135.45 450.15)"><tspan class="cls-64">B</tspan><tspan x="5.75" y="0">oone </tspan><tspan class="cls-65" x="28.03" y="0">C</tspan><tspan class="cls-66" x="33.96" y="0">ou</tspan><tspan class="cls-67" x="44.08" y="0">n</tspan><tspan x="49.04" y="0">t</tspan><tspan class="cls-68" x="52.26" y="0">y</tspan><tspan class="cls-14" x="56.68" y="0"> </tspan><tspan class="cls-69" x="58.8" y="0">w</tspan><tspan x="65.82" y="0">as fifth highest in popula</tspan><tspan class="cls-70" x="158.01" y="0">t</tspan><tspan x="162.43" y="0">ion g</tspan><tspan class="cls-71" x="185.08" y="0">r</tspan><tspan class="cls-72" x="188.17" y="0">o</tspan><tspan x="193.21" y="0">wth in </tspan><tspan class="cls-64" x="220.31" y="0">M</tspan><tspan class="cls-66" x="228.6" y="0">issouri — </tspan><tspan class="cls-73"><tspan x="17.6" y="11">g</tspan><tspan class="cls-74" x="22.35" y="11">r</tspan><tspan class="cls-75" x="25.58" y="11">o</tspan><tspan x="30.67" y="11">wing 12.89%</tspan><tspan class="cls-76" x="82.59" y="11" xml:space="preserve"> f</tspan><tspan class="cls-77" x="88.05" y="11">r</tspan><tspan class="cls-78" x="91.14" y="11">om 162,642 people </tspan><tspan class="cls-79" x="170.74" y="11">t</tspan><tspan class="cls-76" x="173.94" y="11">o 183,610 people. </tspan></tspan></text><line class="cls-80" x1="41" y1="716" x2="498.5" y2="716"/><line class="cls-80" x1="44" y1="371" x2="499" y2="371"/><rect class="cls-61" x="276.09" y="531.08" width="65" height="32" rx="7.62"/><text class="cls-29" transform="translate(280.47 551.97)">13.33%</text><line class="cls-62" x1="329.35" y1="556.08" x2="329.35" y2="541.08"/><polygon points="329.35 536.08 323.29 543.08 335.42 543.08 329.35 536.08"/><rect class="cls-61" x="351.99" y="534.83" width="65" height="32" rx="7.62"/><text class="cls-29" transform="translate(356.37 555.72)">12.89%</text><line class="cls-62" x1="405.25" y1="559.83" x2="405.25" y2="544.83"/><polygon points="405.25 539.83 399.19 546.83 411.32 546.83 405.25 539.83"/><rect class="cls-61" x="428.94" y="645.54" width="65" height="32" rx="7.62"/><text class="cls-29" transform="translate(437.31 666.42)">2.77%</text><line class="cls-62" x1="482.2" y1="670.54" x2="482.2" y2="655.54"/><polygon points="482.2 650.54 476.14 657.54 488.26 657.54 482.2 650.54"/><text class="cls-63" transform="translate(111.2 118.68)"><tspan class="cls-75">T</tspan><tspan x="5.24" y="0">he popul</tspan><tspan class="cls-70" x="39.65" y="0">a</tspan><tspan x="44.06" y="0">tion in </tspan><tspan class="cls-64" x="71.52" y="0">B</tspan><tspan class="cls-66" x="77.27" y="0">oone </tspan><tspan class="cls-81" x="99.56" y="0">C</tspan><tspan x="105.48" y="0">ou</tspan><tspan class="cls-67" x="115.6" y="0">n</tspan><tspan class="cls-66" x="120.56" y="0">t</tspan><tspan class="cls-82" x="123.78" y="0">y</tspan><tspan class="cls-66" x="128.2" y="0" xml:space="preserve"> has g</tspan><tspan class="cls-14" x="150.88" y="0">r</tspan><tspan class="cls-64" x="153.98" y="0">o</tspan><tspan x="159.01" y="0">wn f</tspan><tspan class="cls-14" x="176.56" y="0">r</tspan><tspan x="179.65" y="0">om </tspan><tspan class="cls-73" x="194.46" y="0">29,672 people</tspan><tspan x="252.1" y="0"> </tspan><tspan class="cls-14" x="254.4" y="0">r</tspan><tspan x="257.49" y="0">e</tspan><tspan class="cls-83" x="262.24" y="0">c</tspan><tspan class="cls-66" x="266.46" y="0">o</tspan><tspan class="cls-84" x="271.56" y="0">r</tspan><tspan class="cls-66" x="274.66" y="0">ded </tspan><tspan class="cls-85" x="4.3" y="11">f</tspan><tspan x="7.31" y="11">o</tspan><tspan class="cls-38" x="12.41" y="11">r</tspan><tspan x="15.5" y="11" xml:space="preserve"> the 1920 </tspan><tspan class="cls-81" x="56.29" y="11">C</tspan><tspan x="62.21" y="11">ensus </tspan><tspan class="cls-86" x="87.1" y="11">t</tspan><tspan class="cls-66" x="90.31" y="11">o </tspan><tspan class="cls-73" x="97.71" y="11">183,610 people</tspan><tspan x="160.57" y="11"> </tspan><tspan class="cls-14" x="162.87" y="11">r</tspan><tspan class="cls-87" x="165.96" y="11">e</tspan><tspan class="cls-88" x="170.71" y="11">c</tspan><tspan x="174.93" y="11">o</tspan><tspan class="cls-89" x="180.03" y="11">r</tspan><tspan x="183.13" y="11">ded </tspan><tspan class="cls-85" x="200.27" y="11">f</tspan><tspan x="203.28" y="11">o</tspan><tspan class="cls-38" x="208.38" y="11">r</tspan><tspan x="211.47" y="11" xml:space="preserve"> the 2020 </tspan><tspan class="cls-81" x="252.26" y="11">C</tspan><tspan class="cls-87" x="258.18" y="11" xml:space="preserve">ensus.  </tspan></text><text class="cls-63" transform="translate(81.09 54.46)"><tspan class="cls-75">T</tspan><tspan x="5.24" y="0">he 2020 </tspan><tspan class="cls-83" x="40.5" y="0">c</tspan><tspan x="44.72" y="0">ensus </tspan><tspan class="cls-88" x="69.61" y="0">c</tspan><tspan x="73.82" y="0">ou</tspan><tspan class="cls-67" x="83.94" y="0">n</tspan><tspan class="cls-86" x="88.9" y="0">t</tspan><tspan x="92.11" y="0">ed </tspan><tspan class="cls-90" x="104.2" y="0">e</tspan><tspan class="cls-91" x="108.85" y="0">v</tspan><tspan x="113.37" y="0">er</tspan><tspan class="cls-68" x="121.4" y="0">y</tspan><tspan x="125.82" y="0" xml:space="preserve"> pe</tspan><tspan class="cls-92" x="137.92" y="0">r</tspan><tspan x="141.17" y="0">son in the </tspan><tspan class="cls-93" x="182.29" y="0">U</tspan><tspan x="188.73" y="0">.S. plus fi</tspan><tspan class="cls-91" x="223.7" y="0">v</tspan><tspan x="228.22" y="0">e </tspan><tspan class="cls-86" x="235.27" y="0">t</tspan><tspan x="238.48" y="0">erri</tspan><tspan class="cls-86" x="251.94" y="0">t</tspan><tspan x="255.15" y="0">ories.</tspan><tspan class="cls-94" x="276.46" y="0"> </tspan><tspan class="cls-95" x="278.49" y="0">T</tspan><tspan x="283.73" y="0">he </tspan><tspan class="cls-88" x="295.81" y="0">c</tspan><tspan x="300.03" y="0">ensus o</tspan><tspan class="cls-88" x="330.02" y="0">c</tspan><tspan class="cls-87" x="334.23" y="0">cu</tspan><tspan class="cls-92" x="343.55" y="0">r</tspan><tspan x="346.8" y="0">s </tspan><tspan class="cls-90" x="353" y="0">e</tspan><tspan class="cls-91" x="357.65" y="0">v</tspan><tspan x="362.17" y="0">er</tspan><tspan class="cls-68" x="370.2" y="0">y</tspan><tspan x="374.62" y="0"> </tspan><tspan class="cls-86" x="376.92" y="0">t</tspan><tspan x="380.13" y="0">en</tspan><tspan class="cls-96" x="389.9" y="0"> </tspan><tspan class="cls-91" x="391.98" y="0">y</tspan><tspan x="396.49" y="0">ea</tspan><tspan class="cls-97" x="405.72" y="0">r</tspan><tspan x="408.97" y="0">s, but 2020</tspan><tspan class="cls-14" x="453.68" y="0"> </tspan><tspan class="cls-98" x="455.8" y="0">w</tspan><tspan x="462.81" y="0">as the fi</tspan><tspan class="cls-97" x="493.94" y="0">r</tspan><tspan class="cls-66" x="497.19" y="0">st time online </tspan><tspan class="cls-14" x="553.11" y="0">r</tspan><tspan x="556.2" y="0">esponses</tspan><tspan class="cls-14" x="592.57" y="0"> </tspan><tspan class="cls-67" x="594.69" y="0">w</tspan><tspan x="601.69" y="0">e</tspan><tspan class="cls-71" x="606.44" y="0">r</tspan><tspan x="609.54" y="0">e all</tspan><tspan class="cls-72" x="625.31" y="0">o</tspan><tspan class="cls-99" x="630.35" y="0">w</tspan><tspan x="637.35" y="0">ed. </tspan><tspan class="cls-100" x="174.7" y="11">H</tspan><tspan x="181.43" y="11">e</tspan><tspan class="cls-14" x="186.18" y="11">r</tspan><tspan class="cls-101" x="189.27" y="11">e</tspan><tspan class="cls-102" x="193.87" y="11">’</tspan><tspan x="195.58" y="11">s a look </tspan><tspan class="cls-70" x="227.77" y="11">a</tspan><tspan x="232.18" y="11">t </tspan><tspan class="cls-64" x="237.71" y="11">B</tspan><tspan x="243.47" y="11">oone </tspan><tspan class="cls-65" x="265.75" y="11">C</tspan><tspan x="271.67" y="11">ou</tspan><tspan class="cls-67" x="281.79" y="11">n</tspan><tspan x="286.75" y="11">ty</tspan><tspan class="cls-102" x="294.62" y="11">’</tspan><tspan x="296.34" y="11">s g</tspan><tspan class="cls-14" x="307.22" y="11">r</tspan><tspan class="cls-64" x="310.31" y="11">o</tspan><tspan x="315.34" y="11">wth as docume</tspan><tspan class="cls-67" x="375.25" y="11">n</tspan><tspan class="cls-86" x="380.21" y="11">t</tspan><tspan x="383.42" y="11">ed </tspan><tspan class="cls-103" x="395.51" y="11">b</tspan><tspan class="cls-68" x="400.44" y="11">y</tspan><tspan class="cls-66" x="404.85" y="11" xml:space="preserve"> the 2020 </tspan><tspan class="cls-88" x="445.65" y="11">c</tspan><tspan x="449.86" y="11">ensus. </tspan></text></g><g id="Layer_9" data-name="Layer 9"><rect class="cls-61" x="242" y="162.95" width="155" height="36" rx="7.62"/><text class="cls-104" transform="translate(246.27 178.33)"><tspan class="cls-105">T</tspan><tspan class="cls-39" x="5.91" y="0">he popul</tspan><tspan class="cls-106" x="44.55" y="0">a</tspan><tspan x="49.55" y="0">tion in </tspan><tspan class="cls-107" x="80.41" y="0">B</tspan><tspan x="86.93" y="0">oone </tspan><tspan class="cls-108" x="111.83" y="0">C</tspan><tspan x="118.34" y="0">ou</tspan><tspan class="cls-109" x="129.72" y="0">n</tspan><tspan class="cls-110" x="135.29" y="0">t</tspan><tspan class="cls-111" x="139.01" y="0">y</tspan><tspan class="cls-39" x="144.04" y="0"> </tspan><tspan x="16.41" y="11">in 2020 </tspan><tspan class="cls-112" x="52.64" y="11">r</tspan><tspan x="56.23" y="11">eached 183,610.</tspan></text></g><g id="Layer_11" data-name="Layer 11"><text class="cls-113" transform="translate(614.2 175.78)">139,955</text><text class="cls-113" transform="translate(616.81 323.78)">18,100</text><text class="cls-113" transform="translate(619.42 472.78)">3,610</text><text class="cls-113" transform="translate(623.08 609.78)">627</text><text class="cls-113" transform="translate(749.08 609.78)">125</text><text class="cls-113" transform="translate(742.81 459.78)">13,373</text><text class="cls-113" transform="translate(745.42 331.78)">8,052</text><text class="cls-113" transform="translate(745.42 188.78)">7,820</text></g></svg>