<svg xmlns="http://www.w3.org/2000/svg" xmlns:xlink="http://www.w3.org/1999/xlink" viewBox="0 0 539.44 515.24"><defs><style>.cls-1,.cls-10,.cls-11,.cls-16,.cls-2,.cls-21,.cls-23,.cls-27,.cls-33{fill:none;}.cls-2{stroke:#70c8c2;}.cls-10,.cls-11,.cls-16,.cls-18,.cls-2,.cls-21,.cls-23{stroke-miterlimit:10;}.cls-25,.cls-3{fill:#fff;}.cls-4{font-size:21px;font-family:Lato-Black, Lato;font-weight:800;}.cls-19,.cls-31,.cls-5{font-size:8px;}.cls-14,.cls-17,.cls-28,.cls-5{fill:#231f20;}.cls-14,.cls-20,.cls-28,.cls-5{font-family:Lato-Regular, Lato;}.cls-29,.cls-31,.cls-6,.cls-7{font-family:Lato-Light, Lato;font-weight:300;}.cls-7{letter-spacing:0em;}.cls-8{clip-path:url(#clip-path);}.cls-9{fill:#e5dbeb;}.cls-10,.cls-11,.cls-21,.cls-33{stroke:#fff;}.cls-10,.cls-11{stroke-width:3px;}.cls-10,.cls-13,.cls-32,.cls-33{fill-rule:evenodd;}.cls-12,.cls-13{fill:#c2e1bc;}.cls-14,.cls-20{font-size:6.94px;}.cls-15{fill:#8572ab;}.cls-16,.cls-18{stroke:#231f20;}.cls-18,.cls-32{fill:#a995c0;}.cls-18{stroke-width:0.25px;}.cls-19,.cls-30{font-family:Lato-Bold, Lato;font-weight:700;}.cls-22{fill:#bed7e8;}.cls-23{stroke:#1a1a1a;stroke-linecap:round;}.cls-24{fill:#1a1a1a;}.cls-25,.cls-26,.cls-27{stroke:#000;}.cls-28{font-size:9.77px;}.cls-29{font-size:11px;}.cls-33{stroke-linejoin:round;stroke-width:1.2px;}.cls-34{fill:#532177;}</style><clipPath id="clip-path"><circle class="cls-1" cx="411.43" cy="184.2" r="95.01"/></clipPath></defs><g id="KEEP_LOCKED:_Guides" data-name="KEEP LOCKED: Guides"><rect class="cls-2" y="-58.88" width="126" height="1416"/><rect class="cls-2" x="135" y="-58.88" width="126" height="1416"/><rect class="cls-2" x="270" y="-58.88" width="126" height="1416"/><rect class="cls-2" x="405" y="-58.88" width="126" height="1416"/></g><g id="Use_me_to_change_size_of_background_box." data-name="Use me to change size of background box."><rect class="cls-3" x="-6" y="-6" width="555" height="531"/></g><g id="Use_me_to_draw_your_chart." data-name="Use me to draw your chart."><text class="cls-4" transform="translate(9 30.41)">Need a flu shot? Boone County has you covered </text><text class="cls-5" transform="translate(404.76 507.21)">ANNIE JENNEMANN<tspan class="cls-6" x="76.44" y="0">/Missourian</tspan></text><text class="cls-5" transform="translate(9 507.21)">Source:<tspan class="cls-7" x="26.29" y="0" xml:space="preserve"> The Centers for Disease Control and Prevention, Missourian reporting </tspan></text></g><g id="Circle_maps" data-name="Circle maps"><g class="cls-8"><circle class="cls-9" cx="410.52" cy="179.57" r="95.32"/><circle class="cls-9" cx="418.9" cy="209.07" r="143.45"/><path class="cls-10" d="M483.48,109.71s3.73,50.92,1.25,77,3.72,12.42-14.91,79.49"/><path class="cls-10" d="M462.37,266.2S435.05,255,404,258.75s-49.68-12.42-49.68-12.42-7.46-5-16.15-19.88a47.6,47.6,0,0,0-22.36-19.87"/><path class="cls-10" d="M336.93,245.08l8.69-9.93s3.73-2.49,3.73-9.94,1.24-46,3.72-55.89,7.46-47.19,7.46-48.44S363,101,361.77,93.56"/><path class="cls-10" d="M411.45,279.86s-1.24-12.42,0-32.29,1.24-38.5,1.24-38.5"/><line class="cls-11" x1="349.66" y1="208.04" x2="482.58" y2="211.46"/><path class="cls-10" d="M489.69,119.64l-65.82-1.24H392.82s-19.76-.47-31.62-4"/><path class="cls-10" d="M411.63,232.83l34.59,1.08s13.67,1.24,11.18-13.67L460,118.7"/><polyline class="cls-10" points="433.38 118.39 431.32 185.47 441.26 196.65"/><polyline class="cls-10" points="434.89 209.88 435.05 204.1 448.71 189.19"/><rect class="cls-12" x="372.95" y="84.87" width="9.94" height="29.34"/><rect class="cls-12" x="405.24" y="78.66" width="13.66" height="23.6"/><path class="cls-13" d="M361.15,151.31V137.79s0-3.86,5-3.86h12.42"/><path class="cls-13" d="M368.6,133.93h13.52s3.87,0,3.87,5v12.42"/><path class="cls-13" d="M385.7,137.66v13.52s0,3.87-5,3.87H368.31"/><path class="cls-13" d="M378.53,155H365s-3.86,0-3.86-5V137.65"/><path class="cls-13" d="M381,135.17v13.52s0,3.87-5,3.87H363.63"/><path class="cls-13" d="M364.87,152.56V139s0-3.86,5-3.86h12.42"/></g><text class="cls-14" transform="translate(482.49 234.08) rotate(-84.43)">S. COLLEGE AVE.</text><text class="cls-14" transform="translate(391.97 261.21) rotate(0.1)">E. STADIUM</text><circle class="cls-15" cx="418.31" cy="131.95" r="8.26"/><text class="cls-14" transform="translate(370.08 119.51) rotate(2.82)">ROLLINS ST.</text><circle class="cls-15" cx="398.01" cy="226.97" r="8.26"/><path class="cls-16" d="M359.93,221.71s9.06,18.12,31.22,9.87"/><path class="cls-17" d="M390.76,231.69a7.36,7.36,0,0,1-3.17-3.63,13.62,13.62,0,0,0,6.84,2.15A14.4,14.4,0,0,0,391,236.5,7.63,7.63,0,0,1,390.76,231.69Z"/><rect class="cls-18" x="449.43" y="96.21" width="75.57" height="44.38"/><text class="cls-19" transform="translate(453.55 107.56) rotate(0.1)">MizzouRec<tspan x="0" y="9">1000 Rollins Street</tspan><tspan class="cls-6"><tspan x="0" y="18">MU students can </tspan><tspan x="0" y="27">get free flu shots.</tspan></tspan></text><rect class="cls-18" x="281" y="166" width="113" height="53"/><text class="cls-19" transform="translate(286.56 177.53) rotate(0.1)">Truman Veterans’ Hospital<tspan x="0" y="9">800 Hospital Drive</tspan><tspan class="cls-6"><tspan x="0" y="18">Enrolled veterans can get free </tspan><tspan x="0" y="27">flu shots at any scheduled </tspan><tspan x="0" y="36">clinic appointment.</tspan></tspan></text><path class="cls-16" d="M446.93,109.38s-18.68-8.21-26.5,15.41"/><path class="cls-17" d="M420.6,124.42a7.4,7.4,0,0,1,4.81-.18,13.67,13.67,0,0,0-6,4,14.35,14.35,0,0,0-2.71-6.64A7.7,7.7,0,0,1,420.6,124.42Z"/><circle class="cls-9" cx="404.1" cy="390.09" r="95.01"/><path class="cls-11" d="M410,286s-9,145-2,207"/><path class="cls-11" d="M302.5,406.5s12,6,41,8,48,5,48,5a112.14,112.14,0,0,0,35,2s9,2,19-8,24-10,24-10,20,0,41-1"/><text class="cls-20" transform="translate(409.29 373.17) rotate(-90)">S. PROVIDENCE</text><text class="cls-20" transform="translate(336.3 415.4) rotate(6.93)">E. SOUTHAMPTON</text><circle class="cls-15" cx="452.02" cy="378.59" r="8.26"/><path class="cls-12" d="M325.05,337.32H328L327,411s-9.66-1-15.83-3.49C311.17,407.51,302.1,370.64,325.05,337.32Z"/><path class="cls-21" d="M448.06,410.72S444,407,444,403a14.71,14.71,0,0,0,15-4c7-7,6.54,4.8,6.54,4.8"/><path class="cls-22" d="M439.5,335.5l15-5s4-2,5,1a55.62,55.62,0,0,0,4,8s2,4-2,5-3,6-3,6,2,8-6,5c0,0-6-5-7-10a7.46,7.46,0,0,0-5-6S436.5,338.5,439.5,335.5Z"/><path class="cls-22" d="M330.63,450.22,349,443a10.8,10.8,0,0,0,4-8c0-5-4-9-7-9s-13-2-17-1c0,0-3-4-9-2s-1.61,8-1.61,8S325.26,445.44,330.63,450.22Z"/><path class="cls-16" d="M387.5,401.5c-1.45,6.28,52.25,19.11,59.43-13.48"/><path class="cls-17" d="M446.81,388.4a7.42,7.42,0,0,1-4.75.78,13.61,13.61,0,0,0,5.44-4.68,14.33,14.33,0,0,0,3.52,6.25A7.7,7.7,0,0,1,446.81,388.4Z"/><rect class="cls-18" x="286" y="325" width="111" height="73"/><text class="cls-19" transform="translate(290.99 339.04) rotate(0.1)">MU Health Care<tspan x="0" y="10">551 E. Southampton Drive</tspan><tspan class="cls-6"><tspan x="0" y="20">Saturday mornings from 8 a.m. </tspan><tspan x="0" y="30">until noon through Nov. 14 in</tspan><tspan x="0" y="40">the parking lot east of South </tspan><tspan x="0" y="50">Providence Medical Park.</tspan></tspan></text><circle class="cls-9" cx="109.03" cy="333.11" r="95.01"/><line class="cls-11" x1="104.5" y1="239" x2="104.55" y2="429.68"/><line class="cls-11" x1="11.52" y1="316.25" x2="203.5" y2="342.5"/><polygon class="cls-12" points="36 339 35 372 48 376 65 376 71 359 74 344 36 339"/><circle class="cls-15" cx="84.88" cy="310.73" r="8.26"/><text class="cls-20" transform="translate(130.75 335.6) rotate(6.73)">W. WORLEY STREET</text><text class="cls-20" transform="matrix(0.01, -1, 1, 0.01, 106.96, 293.61)">WEST BLVD. N</text><path class="cls-23" d="M93,375s-27.07-22.81-13.1-53.32"/><path class="cls-24" d="M79.75,322.06a7.43,7.43,0,0,1-4.77-.58,13.66,13.66,0,0,0,6.52-3,14.45,14.45,0,0,0,1.63,7A7.61,7.61,0,0,1,79.75,322.06Z"/><rect class="cls-18" x="92" y="347" width="163" height="108"/><text class="cls-19" transform="translate(98.18 358.6) rotate(0.1)">Columbia/Boone County Public Health <tspan x="0" y="10">and Human Services</tspan><tspan x="0" y="20" xml:space="preserve">1005 W. Worley Street  </tspan><tspan class="cls-6"><tspan x="0" y="30">Provides free flu shots to all children </tspan><tspan x="0" y="40">ages 6 months to 18 years in Boone County. </tspan><tspan x="0" y="50">The price for residents 19 years and older </tspan><tspan x="0" y="60">varies depending on insurance coverage. </tspan><tspan x="0" y="70">A high-dose flu shot is also available for </tspan><tspan x="0" y="80">patients 65 and over. For self-pay individuals, </tspan><tspan x="0" y="90">the cost is $25.</tspan></tspan></text><text class="cls-5" transform="translate(40.3 205.89)">1,000 feet</text><line class="cls-25" x1="31.66" y1="197.2" x2="31.66" y2="194.21"/><line class="cls-26" x1="85.48" y1="194.21" x2="85.48" y2="197.2"/><line class="cls-27" x1="31.2" y1="194.4" x2="85.94" y2="194.4"/><g id="North_Arrow" data-name="North Arrow"><text class="cls-28" transform="translate(91.9 207.68)">N</text><polygon points="95.63 193 98.31 198.36 95.63 197.47 92.95 198.36 95.63 193"/></g><text class="cls-29" transform="translate(9 48.84)">The Centers for Disease Control and Prevention recommends a flu shot every year as the f<tspan class="cls-30" x="427.91" y="0">irst and most </tspan><tspan class="cls-30"><tspan x="0" y="13">important step</tspan><tspan class="cls-6" x="72.37" y="13" xml:space="preserve"> for protecting against flu viruses. Getting a flu shot this year will not prevent COVID-19, </tspan></tspan><tspan x="0" y="26">but it will reduce the burden of flu hospitaliziations and deaths on the health care system. </tspan></text><rect class="cls-18" x="27" y="90" width="100" height="81"/><text class="cls-31" transform="translate(32.6 101.24) rotate(0.1)">Local pharmacies including<tspan class="cls-30"><tspan x="0" y="9">Walgreens, CVS, D&amp;H </tspan><tspan x="0" y="18">Drugstore, Kilgore&apos;s </tspan><tspan x="0" y="27">Medical Pharmacy </tspan><tspan x="0.01" y="36">and Walmart</tspan><tspan class="cls-6" x="46.24" y="36" xml:space="preserve"> offer flu </tspan></tspan><tspan x="0.01" y="45">shots by appointment, </tspan><tspan x="0.01" y="54">or you can walk in during</tspan><tspan x="0.01" y="63">pharmacy hours.</tspan></text></g><g id="Boone_map" data-name="Boone map"><path class="cls-32" d="M273.27,102.09v7.56H272.1l-.11,5.12s.7-.12,1.51-.23,5.24-.12,5.7-.58.47-14.55.58-15.71.47-2.68,0-3.61-.11-.81-1-1-1.52.69-2.21.93-8.15.11-8.15.11l-.11-8-5.82-.36a7.33,7.33,0,0,1-.35,2.8c-.46.93-1.39,2.91-1.51,3.37l-.47,1.86-7.33-.23V91.5h.82a27.82,27.82,0,0,1,.35-4,7.22,7.22,0,0,0,.34-1.16,3.94,3.94,0,0,0-1.63-.35h-3l-.58,7.22.7.93-.35,2.44h6.16l.35,1.86a11.62,11.62,0,0,0-1.16.82,10.5,10.5,0,0,0-2.1,2.44c-.34.7-1.16,2.44-1.16,2.44h-10l-1,20.48s-.47.35-1.16-.47-2-2.79-2.56-3.25a1.05,1.05,0,0,0-1.17-.12,4.75,4.75,0,0,1-1.16,1.28,10.07,10.07,0,0,1-1.75.7v-3.61s-.69-.23-.81-.81c-.35-1.63-.7-5.12-.7-5.12h-6.4v-4h-1.16v-6.74h-5.7l-2.21.11-.7,13.85,6.4.11-.23,3a14.5,14.5,0,0,1-.82,2.44c-.35.58-.93.82-1.05,1.4a4.44,4.44,0,0,1-.34,1l-19.2-1-.35,7.33s-4.88-.24-7.92-.47-21.63-2.44-21.63-2.44v-2.79l-1.05-.24-.12-1.16a2,2,0,0,0-1,.93c-.34.7-.34.93-.93.82s-1.28-1.63-1.28-1.63l-.46,3.26-3.84-.82v7.45l-.82.11-.46,14.66-7.33-.58-.59,15.71H151l-.12-1.17-1.16-.11-.47,1.28-1.05-.35L148,159.1l-3.84-.58a5.43,5.43,0,0,1-1.51,2.33c-1.17,1-2.56,1.51-2.68,2.67s.47,2.21,1.4,2.21a4.46,4.46,0,0,0,1.51-.23l.12,2,1.74.46-.23,5.82,7.33,1.05-.58,8.61-7-.47-.24,6.4-6-.35-.47,3.26-4.3.23L132.6,203s-2.09.12-2.91.12-.58,1.63-1.62,2.56-3,0-2.8-1.28.82-1.86-.11-1.86a2,2,0,0,0-1.63,2.21c.11,1,2.91,5.47,2.91,5.47s8.61-8,9.89-8,7,2.56,7,2.56l1.27-2.33s.82-1.86,1.75-1.27a5.21,5.21,0,0,1,1.51,1.5,14.65,14.65,0,0,1,0-3.25c.24-.93,1.29-3.26,1.87-3.38s1.28.7,1.62,1.28.24,6.41.24,6.41l2.56.11.11,1.51-2.67.35-.47,14.89,5,.7.35-10.94,6.52.58V201a33.8,33.8,0,0,1,3.49-3.26c.7-.35.93,1.63,1.74,1.63s2.33,0,2.68.93.12,9.54.12,9.54h-1.75v1.63l-4.3-.23-.23,3.83,2.09.12.23-.7a2.35,2.35,0,0,0,1.51.93h1.29l-.24,1.52h1.17l-.24,10.58-3.72-.35-.24,2.1-15.82.23-.11-2.44a7.71,7.71,0,0,0-1.51-.58c-.58-.12-.94-.23-.94-.23l-.11-1.63-4-.24-.35,6.28s.7,3.61,2.56,4.31a38.71,38.71,0,0,0,4.66,1.28v1.86a6.18,6.18,0,0,0,2.32-.23c.7-.35,4.66-6.63,4.66-6.63h8.26l-.12,11,4.19.46,1.75-3.72,9.77.35-.24,2.33-1.74.12-.35-.7h-1.63v1.39l3.72.36.12,2.55,1.86,1,1.87-5,.11-2.1h9V238.1l-1.64-.11v-4.31l-3-.11.11-2.79s-1.16-.94-.46-1.52,1.62.23,1.62.23l8.27.35.11,2.1h.82l-.23-3.72,6.28-.47,3.84.23.23,1.51h2v-5.12l9.19.24,5.58-.35-.11-6.52-3,.12-.11-1.05,9.07.12v1.86l-1.28.93,3.38.11,1-.69,2.67.12.47-2,7.56.23.11,1.63-1.28,1.28,7.92,7,6.28-.24v5.36l6.28,5.82s.23-.71,2-.94a4,4,0,0,1,2.32.12l-.11-15.71a5.51,5.51,0,0,1-.7-2.55,7.28,7.28,0,0,1,.81-2.91l.13-6.29-16-.23v-10.7h-2.44l-.12,1.27-5.35-.23.58-28.85,15.94.23.35-8h2.91l.12.93h1v-4.07l3.84-.12v-15.7h7.8v-1.4h-7.56v-2.33h-.7v-8H275v-3.38l1.87-.12.23-4.3a2,2,0,0,1,1.28-.82c.81-.11-.47-.81-1.28-.81a6.83,6.83,0,0,1-1.63-.23l-.24-.93-2-.12-.11,1.28h-.71v1.16l.59.35-.12,2.8-1.51.35v2.44l-1.63-.12V129.2h-2.21v1.86H266.4l-.58.58h-5.7l.23-10.12a12.54,12.54,0,0,0,.94-2.21,3.76,3.76,0,0,0,.11-2l4-.81,3.73-1.28a4.72,4.72,0,0,0-.58-1.87c-.59-1.16-1.28-2.9-.82-3.72a11.94,11.94,0,0,0,1.28-2.44c.24-.82.24-3.49.82-4.54S273.27,102.09,273.27,102.09Z"/><path class="cls-33" d="M277.13,256.34a69.59,69.59,0,0,0-2.93-6.84c-.93-1.39-2-1.62-3.26-3.95a32.35,32.35,0,0,0-4.42-6.52c-2-2.21-7-7.12-7-7.12s-14.77-11.4-16.87-14.42-2.32-5.59-2.55-8.5-1.28-17.22-1.05-20.24.81-12.34,1.28-14.78a71.27,71.27,0,0,0,.7-10.24c-.12-1.28-1.86-3.61-1.63-6s-.29-4.51,1-6.72,7.33-7.22,8.5-9.31,2.56-7-.12-9.89-8.52-7.78-12-12c-3.85-4.65-5.82-12.79-6.06-15.12a8.71,8.71,0,0,0-3.83-6.05c-2.21-1.63-12-7.8-13.5-9.89s-3.61-4.07-4.3-6.52c-.38-1.31-.92-3.57-1.34-5.39"/><path class="cls-33" d="M289.17,161.34c-9.79-.85-33.58-2.89-38.36-3.17-6.05-.35-8.61.35-13.14-1.75s-8.15-4.42-12.57-5.23-19.55-1.28-25.13-1.51-6.63,2.32-9.54,3.84-7.56,1.16-10.59-.94-7.48-2.42-13.27-3.25c-14.14-2-21.93-2.27-33.07-2.83"/><path class="cls-33" d="M239.13,189s-7.8,1.63-10.36,1.4-3.14-1.63-6.17-2.33-8.72-2.1-9.89-2.21-2,.23-3-.47-1.28-2.21-2.44-2.44-8.39-.46-9.55-.46S192,181,191,181.18a32.5,32.5,0,0,0-3.37,1.16c-.93.36-1.4.13-3.25,0s-5.71-.58-6.87-1.16a4.21,4.21,0,0,1-2.21-3.37c-.23-1.63.4-39.89.4-39.89"/><path class="cls-33" d="M205.44,228s.46-25,.35-26.76-2.91-4.07-3.15-7a12.15,12.15,0,0,1,1.29-6.17c.46-1,.11-2.33.81-3.6a3.94,3.94,0,0,1,1.39-1.63l.82-5.12a3.12,3.12,0,0,1-.93-2.1c.11-1,0-12.68.23-14.89s.23-18.56.11-20.07"/><path class="cls-33" d="M152,164.8a1.63,1.63,0,0,1,1.75-1.16,44,44,0,0,1,4.54.23c.81.12.92.58,2.79.47a37.6,37.6,0,0,1,6.51.23c1.17.23,12.8,1.74,15.25,2.09s7.79.93,7.79.93l7.56.93s4.89-.11,8.38-.34a118.46,118.46,0,0,1,12.8.46c.93.12,6.74,2.09,8.38,2.68s4.42,2.21,6.28,2.21,6.75-.12,8.14.23,1.86.47,2.56,1.51,1.52,2.68,2.68,3.14"/><path class="cls-23" d="M216.1,220.33s88.26,2.12,130.88,89.95"/><path class="cls-24" d="M346.75,309.94a7.37,7.37,0,0,1,3.38-3.42,13.54,13.54,0,0,0-1.63,7,14.44,14.44,0,0,0-6.53-3A7.69,7.69,0,0,1,346.75,309.94Z"/><path class="cls-23" d="M223,178.12s22.87-52.27,99.47-37.82"/><path class="cls-24" d="M322.11,140.27a7.31,7.31,0,0,1-.72-4.76A13.57,13.57,0,0,0,326,141a14.37,14.37,0,0,0-6.29,3.44A7.63,7.63,0,0,1,322.11,140.27Z"/><path class="cls-23" d="M184.45,160.85c-3.42,1.75-60.31,24.25-54,76.63"/><path class="cls-24" d="M130.47,237.07a7.42,7.42,0,0,1,4.29-2.18A13.6,13.6,0,0,0,131,241a14.42,14.42,0,0,0-5.25-4.89A7.69,7.69,0,0,1,130.47,237.07Z"/><circle class="cls-34" cx="218.16" cy="182.51" r="7.2"/><circle class="cls-34" cx="209.12" cy="218.23" r="7.2"/><circle class="cls-34" cx="191.12" cy="158.23" r="7.2"/></g></svg>